<svg width="932" height="809" viewBox="0 0 932 809" fill="none" xmlns="http://www.w3.org/2000/svg">
<path fill-rule="evenodd" clip-rule="evenodd" d="M1041.1 657.622L1010.97 666.332C980.845 675.041 920.592 692.46 870.748 680.371C821.522 668.515 783.323 627.384 745.124 586.253C706.925 545.122 668.107 503.758 625.498 474.337C582.888 444.915 535.867 427.204 482.231 427.058C428.594 426.912 367.723 444.098 314.086 443.952C260.449 443.806 213.429 426.095 173.025 390.819C132.002 355.31 98.2135 302.468 81.3195 276.048L64.4254 249.627L182.103 251.978L270.734 275.331C294.244 284.186 283.613 238.749 331.252 256.694C378.272 274.405 366.308 162.766 413.329 180.477C460.349 198.188 507.988 216.132 555.009 233.843C602.029 251.554 649.05 269.265 696.07 286.976C743.091 304.688 790.73 322.632 837.75 340.343C884.771 358.054 931.791 375.765 978.812 393.476C1026.45 411.42 1073.47 429.131 1096.98 437.987L1120.49 446.842L1041.1 657.622Z" fill="#FF7E0C" fill-opacity="0.52"/>
<g filter="url(#filter0_d_79_49)">
<circle cx="783.459" cy="612.827" r="53.3869" transform="rotate(96.9104 783.459 612.827)" fill="#FFA758"/>
</g>
<g filter="url(#filter1_d_79_49)">
<circle cx="705.847" cy="588.26" r="22.026" transform="rotate(75.7846 705.847 588.26)" fill="#FE9335"/>
</g>
<g filter="url(#filter2_d_79_49)">
<circle cx="602.157" cy="463.976" r="33.2271" transform="rotate(75.7846 602.157 463.976)" fill="#F5B072"/>
</g>
<defs>
<filter id="filter0_d_79_49" x="726.067" y="559.435" width="114.784" height="114.784" filterUnits="userSpaceOnUse" color-interpolation-filters="sRGB">
<feFlood flood-opacity="0" result="BackgroundImageFix"/>
<feColorMatrix in="SourceAlpha" type="matrix" values="0 0 0 0 0 0 0 0 0 0 0 0 0 0 0 0 0 0 127 0" result="hardAlpha"/>
<feOffset dy="4"/>
<feGaussianBlur stdDeviation="2"/>
<feColorMatrix type="matrix" values="0 0 0 0 0 0 0 0 0 0 0 0 0 0 0 0 0 0 0.25 0"/>
<feBlend mode="normal" in2="BackgroundImageFix" result="effect1_dropShadow_79_49"/>
<feBlend mode="normal" in="SourceGraphic" in2="effect1_dropShadow_79_49" result="shape"/>
</filter>
<filter id="filter1_d_79_49" x="679.815" y="566.229" width="52.0626" height="52.0625" filterUnits="userSpaceOnUse" color-interpolation-filters="sRGB">
<feFlood flood-opacity="0" result="BackgroundImageFix"/>
<feColorMatrix in="SourceAlpha" type="matrix" values="0 0 0 0 0 0 0 0 0 0 0 0 0 0 0 0 0 0 127 0" result="hardAlpha"/>
<feOffset dy="4"/>
<feGaussianBlur stdDeviation="2"/>
<feColorMatrix type="matrix" values="0 0 0 0 0 0 0 0 0 0 0 0 0 0 0 0 0 0 0.25 0"/>
<feBlend mode="normal" in2="BackgroundImageFix" result="effect1_dropShadow_79_49"/>
<feBlend mode="normal" in="SourceGraphic" in2="effect1_dropShadow_79_49" result="shape"/>
</filter>
<filter id="filter2_d_79_49" x="564.922" y="430.741" width="74.47" height="74.4702" filterUnits="userSpaceOnUse" color-interpolation-filters="sRGB">
<feFlood flood-opacity="0" result="BackgroundImageFix"/>
<feColorMatrix in="SourceAlpha" type="matrix" values="0 0 0 0 0 0 0 0 0 0 0 0 0 0 0 0 0 0 127 0" result="hardAlpha"/>
<feOffset dy="4"/>
<feGaussianBlur stdDeviation="2"/>
<feColorMatrix type="matrix" values="0 0 0 0 0 0 0 0 0 0 0 0 0 0 0 0 0 0 0.25 0"/>
<feBlend mode="normal" in2="BackgroundImageFix" result="effect1_dropShadow_79_49"/>
<feBlend mode="normal" in="SourceGraphic" in2="effect1_dropShadow_79_49" result="shape"/>
</filter>
</defs>
</svg>
