<svg width="1053" height="953" viewBox="0 0 1053 953" fill="none" xmlns="http://www.w3.org/2000/svg">
<path fill-rule="evenodd" clip-rule="evenodd" d="M-249.873 97.7559L-209.608 89.4201C-169.343 81.0842 -88.8125 64.4126 -24.8761 85.2622C38.2752 105.745 84.0476 163.381 129.82 221.017C175.593 278.654 222.15 336.658 274.874 379.432C327.598 422.207 387.274 450.12 457.376 455.741C527.479 461.362 608.794 445.058 678.897 450.678C749 456.299 808.676 484.212 857.924 534.418C907.957 584.991 946.778 657.489 966.189 693.738L985.599 729.987L832 715.001L718.5 675.5C688.662 661.544 675.461 777.781 615 749.5C555.325 721.587 524.175 768.413 464.5 740.5C404.824 712.587 402.352 728.871 342.676 700.958C283.001 673.045 223.325 645.132 163.65 617.218C103.974 589.305 43.5137 561.025 -16.1618 533.111C-75.8373 505.198 -135.513 477.285 -195.188 449.372C-255.649 421.091 -315.324 393.178 -345.162 379.222L-375 365.265L-249.873 97.7559Z" fill="#F2994A" fill-opacity="0.52"/>
<g filter="url(#filter0_d_79_31)">
<circle cx="82.396" cy="182.397" r="70" transform="rotate(-78.6616 82.396 182.397)" fill="#FFA758"/>
</g>
<g filter="url(#filter1_d_79_31)">
<circle cx="181.369" cy="222.37" r="28.8802" transform="rotate(-99.7873 181.369 222.37)" fill="#FE9335"/>
</g>
<g filter="url(#filter2_d_79_31)">
<circle cx="304.339" cy="395.339" r="43.5668" transform="rotate(-99.7873 304.339 395.339)" fill="#F5B072"/>
</g>
<g filter="url(#filter3_d_79_31)">
<circle cx="285.667" cy="355.667" r="13.5591" transform="rotate(-99.7873 285.667 355.667)" fill="#FE9335"/>
</g>
<defs>
<filter id="filter0_d_79_31" x="8.38251" y="112.383" width="148.027" height="148.027" filterUnits="userSpaceOnUse" color-interpolation-filters="sRGB">
<feFlood flood-opacity="0" result="BackgroundImageFix"/>
<feColorMatrix in="SourceAlpha" type="matrix" values="0 0 0 0 0 0 0 0 0 0 0 0 0 0 0 0 0 0 127 0" result="hardAlpha"/>
<feOffset dy="4"/>
<feGaussianBlur stdDeviation="2"/>
<feColorMatrix type="matrix" values="0 0 0 0 0 0 0 0 0 0 0 0 0 0 0 0 0 0 0.25 0"/>
<feBlend mode="normal" in2="BackgroundImageFix" result="effect1_dropShadow_79_31"/>
<feBlend mode="normal" in="SourceGraphic" in2="effect1_dropShadow_79_31" result="shape"/>
</filter>
<filter id="filter1_d_79_31" x="148.484" y="193.485" width="65.7698" height="65.7698" filterUnits="userSpaceOnUse" color-interpolation-filters="sRGB">
<feFlood flood-opacity="0" result="BackgroundImageFix"/>
<feColorMatrix in="SourceAlpha" type="matrix" values="0 0 0 0 0 0 0 0 0 0 0 0 0 0 0 0 0 0 127 0" result="hardAlpha"/>
<feOffset dy="4"/>
<feGaussianBlur stdDeviation="2"/>
<feColorMatrix type="matrix" values="0 0 0 0 0 0 0 0 0 0 0 0 0 0 0 0 0 0 0.25 0"/>
<feBlend mode="normal" in2="BackgroundImageFix" result="effect1_dropShadow_79_31"/>
<feBlend mode="normal" in="SourceGraphic" in2="effect1_dropShadow_79_31" result="shape"/>
</filter>
<filter id="filter2_d_79_31" x="256.765" y="351.765" width="95.1478" height="95.1478" filterUnits="userSpaceOnUse" color-interpolation-filters="sRGB">
<feFlood flood-opacity="0" result="BackgroundImageFix"/>
<feColorMatrix in="SourceAlpha" type="matrix" values="0 0 0 0 0 0 0 0 0 0 0 0 0 0 0 0 0 0 127 0" result="hardAlpha"/>
<feOffset dy="4"/>
<feGaussianBlur stdDeviation="2"/>
<feColorMatrix type="matrix" values="0 0 0 0 0 0 0 0 0 0 0 0 0 0 0 0 0 0 0.25 0"/>
<feBlend mode="normal" in2="BackgroundImageFix" result="effect1_dropShadow_79_31"/>
<feBlend mode="normal" in="SourceGraphic" in2="effect1_dropShadow_79_31" result="shape"/>
</filter>
<filter id="filter3_d_79_31" x="268.105" y="342.106" width="35.1226" height="35.1227" filterUnits="userSpaceOnUse" color-interpolation-filters="sRGB">
<feFlood flood-opacity="0" result="BackgroundImageFix"/>
<feColorMatrix in="SourceAlpha" type="matrix" values="0 0 0 0 0 0 0 0 0 0 0 0 0 0 0 0 0 0 127 0" result="hardAlpha"/>
<feOffset dy="4"/>
<feGaussianBlur stdDeviation="2"/>
<feColorMatrix type="matrix" values="0 0 0 0 0 0 0 0 0 0 0 0 0 0 0 0 0 0 0.25 0"/>
<feBlend mode="normal" in2="BackgroundImageFix" result="effect1_dropShadow_79_31"/>
<feBlend mode="normal" in="SourceGraphic" in2="effect1_dropShadow_79_31" result="shape"/>
</filter>
</defs>
</svg>
